PathFileType	4	(x/y/z)	S02_M20_T14
DataRate	CameraRate	NumFrames	NumMarkers	Units	OrigDataRate	OrigDataStartFrame	OrigNumFrames
240	240	9	51	mm	240	231	460
Frame#	Time	Sternum			R.Acromium			L.Acromium			Top.Head			R.ASIS			L.ASIS			R.PSIS			L.PSIS			R.Great.Tro			L.Great.Tro			R.Iliac.Crest			L.Iliac.Crest			V.Sacral			R.Thigh.Upper.Post			R.Thigh.Lower.Ant			R.Thigh.Lower.Post			R.Thigh.Upper.Ant			R.Knee.Lat			R.Knee.Med			R.Shank.Upper.Post			R.Shank.Lower.Ant			R.Shank.Lower.Post			R.Shank.Upper.Ant			R.Ankle.Lat			R.Ankle.Med			R.Heel.Upper			R.Heel.Med			R.Heel.Lat			R.Toe.Lat			R.Toe.Med			R.Toe.Tip			L.Thigh.Upper.Post			L.Thigh.Lower.Ant			L.Thigh.Lower.Post			L.Thigh.Upper.Ant			L.Knee.Lat			L.Knee.Med			L.Shank.Upper.Post			L.Shank.Lower.Ant			L.Shank.Lower.Post			L.Shank.Upper.Ant			L.Ankle.Lat			L.Ankle.Med			L.Heel.Upper			L.Heel.Med			L.Heel.Lat			L.Toe.Lat			L.Toe.Med			L.Toe.Tip			Cervical.Spine			Back			
		X1	Y1	Z1	X2	Y2	Z2	X3	Y3	Z3	X4	Y4	Z4	X5	Y5	Z5	X6	Y6	Z6	X7	Y7	Z7	X8	Y8	Z8	X9	Y9	Z9	X10	Y10	Z10	X11	Y11	Z11	X12	Y12	Z12	X13	Y13	Z13	X14	Y14	Z14	X15	Y15	Z15	X16	Y16	Z16	X17	Y17	Z17	X18	Y18	Z18	X19	Y19	Z19	X20	Y20	Z20	X21	Y21	Z21	X22	Y22	Z22	X23	Y23	Z23	X24	Y24	Z24	X25	Y25	Z25	X26	Y26	Z26	X27	Y27	Z27	X28	Y28	Z28	X29	Y29	Z29	X30	Y30	Z30	X31	Y31	Z31	X32	Y32	Z32	X33	Y33	Z33	X34	Y34	Z34	X35	Y35	Z35	X36	Y36	Z36	X37	Y37	Z37	X38	Y38	Z38	X39	Y39	Z39	X40	Y40	Z40	X41	Y41	Z41	X42	Y42	Z42	X43	Y43	Z43	X44	Y44	Z44	X45	Y45	Z45	X46	Y46	Z46	X47	Y47	Z47	X48	Y48	Z48	X49	Y49	Z49	X50	Y50	Z50	X51	Y51	Z51	

231	0.95833	-272.38	1117.1	369.38	-385.45	1341.9	524.4	-386.06	1358.1	231.21	-353.95	1636.8	379.52	-304.34	932.64	477.94	-294.19	921.81	259.57	-519.06	970.37	404.96	-519.88	970.8	330.69	-375.27	818.87	556.26	-410.21	830.73	168.68	-407.58	982.98	527.11	-412.8	974.5	189.85	-548.36	925.51	362.45	-374.34	616.28	530	-322.85	538.86	486.7	-392.91	530.6	506.3	-308.02	624.54	509.39	-376.79	453.9	483.51	-390.2	446.67	342.34	-477.26	254.51	461.6	-410.65	168.24	439.13	-477.54	181.7	448.96	-406.33	235.59	459.18	-469.01	87.987	430.72	-461.6	104.7	350.05	-532.76	76.256	375.73	-519.3	44.498	346.99	-528.25	44.126	410.83	-365.91	38.779	448.67	-336.09	35.63	340.85	-286.69	61.892	395.53	-366.26	605.94	184.38	-268.98	554.17	174.7	-335.73	521.54	202.3	-307.28	640.88	160.73	-267.85	470.97	184.22	-247.28	466.58	323.24	-407.76	349.57	204.09	-379.59	241.8	205.42	-437.97	284.07	219.77	-354.82	312.87	191.34	-459.55	165.46	224.09	-439.86	156.16	305.58	-523.94	156.62	270.61	-519.8	129.73	303.78	-534.4	128.63	244.07	-393.15	55.995	189.73	-352.57	59.03	291.52	-298.76	52.25	236.47	-462.38	1406.7	383.63	-532.48	1153.7	375.31
232	0.9625	-267.84	1117.3	369.83	-380.73	1342.2	524.57	-381.51	1358.1	231.39	-348.98	1636.8	379.51	-300.18	932.65	478.59	-289.23	922.13	260.24	-514.59	970.3	404.45	-515.12	970.81	330.19	-371.75	818.68	556.4	-404.5	831.21	168.42	-403.69	982.95	527.26	-407.49	974.91	189.9	-543.62	925.43	361.74	-372.55	616.2	530.21	-321.59	538.2	487.15	-391.87	530.63	506.31	-306	623.75	509.89	-376.31	453.77	483.64	-389.09	446.53	342.39	-477.06	254.63	461.52	-410.62	168.29	439.06	-477.43	181.84	448.9	-406.2	235.62	459.15	-468.99	88.039	430.63	-461.53	104.8	349.96	-532.73	76.293	375.65	-519.3	44.499	346.91	-528.24	44.182	410.76	-365.9	38.769	448.67	-336.1	35.616	340.87	-286.68	61.853	395.55	-359.39	606.3	184.37	-261.65	555.27	175.33	-328.29	522.15	202.57	-300.57	641.65	160.97	-259.9	472.03	185.02	-239.86	467.97	324.05	-397.28	347.42	204.76	-366.59	240.35	205.84	-425.83	281.24	220.32	-343.57	312	191.88	-444.76	162.12	224.39	-424.59	153	305.86	-508.88	151.66	271.09	-503.93	124.7	304.13	-518.65	123.49	244.46	-375.86	54.339	189.55	-335.02	58.012	291.26	-281.25	52.668	236.03	-457.66	1406.7	383.8	-527.89	1153.8	375.49
233	0.96667	-263.29	1117.4	370.27	-375.98	1342.3	524.72	-376.94	1358.1	231.55	-344	1636.8	379.48	-295.99	932.59	479.19	-284.28	922.39	260.87	-510.1	970.18	403.96	-510.35	970.77	329.7	-368.22	818.46	556.53	-398.82	831.63	168.15	-399.76	982.87	527.4	-402.19	975.25	189.94	-538.88	925.31	361.05	-370.78	616.12	530.43	-320.33	537.54	487.61	-390.82	530.66	506.32	-303.99	622.96	510.39	-375.83	453.64	483.77	-387.97	446.39	342.45	-476.86	254.75	461.43	-410.61	168.34	438.99	-477.32	181.99	448.82	-406.07	235.64	459.11	-468.98	88.093	430.52	-461.5	104.88	349.86	-532.7	76.328	375.56	-519.3	44.504	346.84	-528.22	44.241	410.69	-365.9	38.757	448.67	-336.11	35.597	340.89	-286.66	61.81	395.57	-352.57	606.61	184.36	-254.4	556.3	175.98	-320.93	522.71	202.85	-293.89	642.36	161.23	-252.04	473.01	185.83	-232.54	469.28	324.89	-386.79	345.22	205.4	-353.55	238.92	206.27	-413.64	278.37	220.86	-332.32	311.11	192.41	-429.88	158.83	224.68	-409.24	149.89	306.13	-493.67	146.76	271.55	-487.94	119.77	304.47	-502.77	118.43	244.83	-358.51	52.785	189.36	-317.45	57.103	291.01	-263.74	53.184	235.59	-452.94	1406.8	383.96	-523.31	1153.9	375.67
234	0.97083	-258.74	1117.4	370.7	-371.22	1342.4	524.85	-372.37	1358.1	231.7	-339.01	1636.6	379.43	-291.77	932.47	479.75	-279.32	922.59	261.46	-505.6	970.01	403.49	-505.58	970.69	329.24	-364.68	818.22	556.64	-393.16	832	167.87	-395.8	982.74	527.53	-396.9	975.53	189.98	-534.13	925.14	360.39	-369	616.04	530.65	-319.08	536.89	488.07	-389.76	530.7	506.35	-302	622.18	510.88	-375.36	453.51	483.92	-386.87	446.23	342.52	-476.66	254.87	461.35	-410.62	168.38	438.92	-477.21	182.13	448.74	-405.96	235.66	459.07	-468.96	88.15	430.4	-461.49	104.95	349.76	-532.67	76.362	375.44	-519.28	44.513	346.76	-528.21	44.305	410.62	-365.89	38.743	448.67	-336.12	35.573	340.91	-286.64	61.765	395.58	-345.79	606.88	184.36	-247.21	557.26	176.65	-313.65	523.2	203.13	-287.25	642.99	161.51	-244.27	473.93	186.65	-225.32	470.5	325.73	-376.28	342.98	206.03	-340.48	237.51	206.69	-401.4	275.49	221.39	-321.07	310.2	192.94	-414.91	155.61	224.94	-393.82	146.86	306.38	-478.33	141.93	271.99	-471.83	114.93	304.79	-486.75	113.46	245.18	-341.12	51.339	189.17	-299.85	56.311	290.76	-246.24	53.804	235.18	-448.21	1406.7	384.11	-518.73	1153.9	375.83
235	0.975	-254.19	1117.4	371.11	-366.45	1342.5	524.97	-367.79	1358	231.84	-334.03	1636.5	379.36	-287.53	932.28	480.26	-274.36	922.72	262.01	-501.08	969.81	403.05	-500.81	970.57	328.8	-361.13	817.96	556.74	-387.54	832.31	167.6	-391.8	982.55	527.66	-391.63	975.74	190.01	-529.37	924.94	359.76	-367.22	615.96	530.87	-317.83	536.25	488.54	-388.7	530.73	506.4	-300.02	621.4	511.36	-374.88	453.39	484.08	-385.78	446.07	342.6	-476.46	254.98	461.25	-410.64	168.42	438.85	-477.1	182.27	448.64	-405.86	235.68	459.04	-468.94	88.209	430.27	-461.52	105	349.65	-532.64	76.394	375.32	-519.26	44.527	346.68	-528.19	44.373	410.54	-365.87	38.729	448.66	-336.12	35.544	340.92	-286.62	61.717	395.6	-339.06	607.08	184.38	-240.1	558.13	177.34	-306.45	523.63	203.43	-280.65	643.56	161.81	-236.58	474.77	187.47	-218.2	471.64	326.6	-365.75	340.69	206.63	-327.38	236.13	207.12	-389.12	272.6	221.91	-309.82	309.29	193.47	-399.87	152.46	225.19	-378.34	143.91	306.62	-462.86	137.19	272.39	-455.61	110.21	305.09	-470.61	108.59	245.5	-323.69	50.006	188.99	-282.25	55.645	290.53	-228.75	54.535	234.78	-443.47	1406.6	384.24	-514.16	1153.9	375.98
236	0.97917	-249.64	1117.3	371.52	-361.66	1342.5	525.07	-363.2	1357.8	231.97	-329.03	1636.3	379.26	-283.27	932.03	480.73	-269.39	922.79	262.52	-496.54	969.57	402.62	-496.03	970.4	328.38	-357.56	817.67	556.83	-381.93	832.56	167.33	-387.77	982.31	527.79	-386.36	975.89	190.05	-524.61	924.7	359.16	-365.44	615.89	531.08	-316.58	535.61	489	-387.62	530.77	506.45	-298.05	620.64	511.82	-374.4	453.27	484.25	-384.71	445.91	342.69	-476.27	255.1	461.16	-410.69	168.45	438.79	-477	182.41	448.52	-405.76	235.71	459	-468.91	88.27	430.13	-461.55	105.03	349.53	-532.61	76.424	375.18	-519.22	44.544	346.59	-528.17	44.445	410.45	-365.86	38.713	448.65	-336.11	35.51	340.94	-286.59	61.667	395.62	-332.38	607.23	184.4	-233.06	558.93	178.04	-299.33	524	203.73	-274.08	644.06	162.14	-228.98	475.54	188.31	-211.18	472.69	327.47	-355.2	338.37	207.21	-314.27	234.79	207.54	-376.79	269.71	222.41	-298.57	308.37	193.98	-384.76	149.39	225.41	-362.8	141.05	306.84	-447.27	132.54	272.77	-439.28	105.6	305.36	-454.36	103.83	245.8	-306.22	48.793	188.82	-264.64	55.113	290.33	-211.29	55.382	234.43	-438.72	1406.5	384.37	-509.59	1153.8	376.11
237	0.98333	-245.08	1117.1	371.91	-356.85	1342.4	525.16	-358.6	1357.5	232.09	-324.02	1636	379.15	-278.99	931.72	481.15	-264.41	922.79	262.99	-491.99	969.28	402.22	-491.24	970.19	327.99	-353.98	817.37	556.91	-376.35	832.76	167.07	-383.69	982.02	527.9	-381.11	975.97	190.08	-519.85	924.43	358.59	-363.64	615.81	531.28	-315.32	534.99	489.45	-386.53	530.81	506.51	-296.08	619.89	512.25	-373.92	453.15	484.42	-383.67	445.74	342.79	-476.08	255.21	461.05	-410.74	168.48	438.73	-476.91	182.55	448.39	-405.67	235.73	458.96	-468.89	88.333	429.98	-461.59	105.06	349.41	-532.58	76.452	375.02	-519.18	44.565	346.5	-528.15	44.523	410.36	-365.85	38.697	448.64	-336.1	35.469	340.95	-286.55	61.615	395.64	-325.75	607.33	184.44	-226.1	559.64	178.76	-292.3	524.3	204.04	-267.56	644.48	162.49	-221.47	476.23	189.15	-204.25	473.65	328.36	-344.63	336.03	207.75	-301.14	233.49	207.96	-364.42	266.83	222.9	-287.32	307.45	194.49	-369.57	146.41	225.62	-347.22	138.29	307.04	-431.57	127.99	273.11	-422.85	101.13	305.61	-438	99.185	246.06	-288.72	47.706	188.67	-247.05	54.722	290.15	-193.86	56.354	234.11	-433.96	1406.3	384.48	-505.02	1153.7	376.24
238	0.9875	-240.52	1116.9	372.29	-352.02	1342.2	525.23	-353.99	1357.2	232.2	-319.01	1635.6	379.02	-274.68	931.35	481.54	-259.43	922.74	263.42	-487.42	968.96	401.84	-486.44	969.94	327.62	-350.38	817.03	556.98	-370.78	832.89	166.81	-379.58	981.66	528	-375.87	975.97	190.11	-515.09	924.12	358.05	-361.83	615.73	531.46	-314.06	534.37	489.89	-385.42	530.85	506.59	-294.11	619.14	512.65	-373.43	453.04	484.6	-382.67	445.57	342.89	-475.89	255.33	460.95	-410.79	168.51	438.68	-476.82	182.69	448.24	-405.57	235.75	458.93	-468.87	88.398	429.83	-461.63	105.07	349.28	-532.55	76.481	374.86	-519.13	44.589	346.41	-528.12	44.605	410.26	-365.84	38.68	448.63	-336.08	35.423	340.96	-286.51	61.562	395.66	-319.17	607.36	184.5	-219.21	560.26	179.49	-285.34	524.53	204.36	-261.08	644.83	162.86	-214.05	476.85	189.99	-197.42	474.52	329.26	-334.04	333.66	208.27	-287.99	232.24	208.37	-352.02	263.95	223.36	-276.07	306.53	194.99	-354.31	143.52	225.8	-331.61	135.64	307.23	-415.76	123.54	273.41	-406.34	96.785	305.82	-421.54	94.663	246.28	-271.19	46.752	188.55	-229.48	54.479	290.02	-176.46	57.458	233.86	-429.19	1406.1	384.58	-500.45	1153.5	376.35
239	0.99167	-235.95	1116.6	372.64	-347.18	1342	525.28	-349.37	1356.8	232.3	-313.98	1635.3	378.86	-270.35	930.92	481.89	-254.43	922.62	263.8	-482.84	968.61	401.49	-481.62	969.64	327.27	-346.77	816.67	557.03	-365.22	832.95	166.56	-375.43	981.25	528.1	-370.65	975.9	190.13	-510.32	923.77	357.54	-359.99	615.63	531.62	-312.79	533.77	490.29	-384.28	530.89	506.66	-292.12	618.41	513	-372.92	452.92	484.78	-381.7	445.4	342.99	-475.69	255.45	460.83	-410.83	168.53	438.62	-476.73	182.82	448.08	-405.48	235.77	458.89	-468.84	88.465	429.66	-461.67	105.08	349.14	-532.52	76.511	374.68	-519.08	44.616	346.32	-528.09	44.693	410.15	-365.83	38.663	448.62	-336.05	35.37	340.97	-286.46	61.507	395.67	-312.65	607.34	184.58	-212.4	560.8	180.24	-278.46	524.69	204.69	-254.64	645.1	163.26	-206.71	477.39	190.82	-190.69	475.28	330.16	-323.43	331.27	208.74	-274.85	231.04	208.78	-339.58	261.1	223.8	-264.83	305.63	195.47	-338.98	140.73	225.96	-315.97	133.11	307.41	-399.86	119.22	273.66	-389.75	92.588	306.01	-404.98	90.27	246.46	-253.64	45.938	188.45	-211.95	54.393	289.92	-159.1	58.702	233.66	-424.41	1405.8	384.67	-495.88	1153.3	376.46
